<?xml version="1.0" standalone="no"?>
<!DOCTYPE svg PUBLIC "-//W3C//DTD SVG 20010904//EN"
 "http://www.w3.org/TR/2001/REC-SVG-20010904/DTD/svg10.dtd">
<svg version="1.0" xmlns="http://www.w3.org/2000/svg"
 width="320.000000pt" height="320.000000pt" viewBox="0 0 320.000000 320.000000"
 preserveAspectRatio="xMidYMid meet">
<metadata>
Created by potrace 1.14, written by Peter Selinger 2001-2017
</metadata>
<g transform="translate(0.000000,320.000000) scale(0.100000,-0.100000)"
fill="#000000" stroke="none">
<path d="M0 1600 l0 -1600 1600 0 1600 0 0 1600 0 1600 -1600 0 -1600 0 0
-1600z m1914 1273 c47 -120 151 -387 231 -593 81 -206 162 -413 180 -460 73
-186 189 -482 237 -605 28 -71 79 -202 113 -290 35 -88 120 -306 190 -485 70
-178 129 -328 131 -332 3 -5 -179 -8 -404 -8 l-410 0 -6 23 c-3 12 -64 171
-135 352 l-129 330 -517 0 -517 0 -124 -315 c-68 -173 -132 -332 -141 -352
l-16 -38 -200 0 c-155 0 -198 3 -194 13 3 6 145 363 315 792 170 429 385 969
477 1200 92 231 175 443 186 471 l19 51 -86 219 c-47 121 -89 225 -91 232 -4
9 80 12 400 12 l405 0 86 -217z"/>
<path d="M1210 1643 c-102 -256 -186 -470 -188 -474 -2 -5 165 -9 372 -9 207
0 376 2 376 4 0 2 -59 154 -131 338 -71 183 -153 392 -180 463 -28 72 -53 133
-57 137 -4 4 -90 -203 -192 -459z"/>
</g>
</svg>
