<?xml version="1.0" encoding="UTF-8"?>
<!DOCTYPE svg PUBLIC "-//W3C//DTD SVG 1.1//EN" "http://www.w3.org/Graphics/SVG/1.1/DTD/svg11.dtd">
<svg xmlns="http://www.w3.org/2000/svg" xml:space="preserve" version="1.1" style="shape-rendering:geometricPrecision; text-rendering:geometricPrecision; image-rendering:optimizeQuality; fill-rule:evenodd; clip-rule:evenodd"
viewBox="0 0 752 459.86"
 xmlns:xlink="http://www.w3.org/1999/xlink">
 <defs>
  <style type="text/css">
   <![CDATA[
    .fil1 {fill:#261F0C}
    .fil2 {fill:#FDC311}
    .fil0 {fill:white}
   ]]>
  </style>
 </defs>
 <g id="Layer_x0020_1">
  <g id="_2299930776528">
   <path class="fil0" d="M336.92 18.93c15.84,0.04 31.63,0 47.46,-0.04 0.09,2.88 0.29,8.67 0.38,11.54 -12.13,0.21 -24.21,0.42 -36.29,0.63 -0.05,15.54 0.08,31.37 -4.84,46.33 -8.75,27.08 -4.21,55.87 -2.12,83.62 -3.59,-12.95 -4.04,-26.5 -4.09,-39.83 0.34,-34.12 -1.08,-68.17 -0.5,-102.25z"/>
   <path class="fil0" d="M268.8 37.18c4.67,-0.16 9.38,-0.33 14.08,-0.46 -0.62,14.59 -0.91,29.25 -0.41,43.88 -4.59,0 -9.09,0 -13.63,0 -0.04,-14.46 0,-28.96 -0.04,-43.42z"/>
   <path class="fil0" d="M438.42 37.02c3.63,0 10.88,0.04 14.5,0.04 -0.95,14.41 -1.25,28.87 -0.79,43.29 -3.37,0.08 -10.16,0.25 -13.54,0.33 -0.12,-14.58 -0.12,-29.12 -0.17,-43.66z"/>
   <path class="fil0" d="M71.3 315.85c6.21,-107.67 79.25,-206.38 178.42,-247.33 0.08,7.83 0.08,15.7 0.12,23.58 -87.54,41.54 -149.08,128.96 -165.08,223.83 -3.37,0 -10.08,-0.04 -13.46,-0.08z"/>
   <path class="fil0" d="M18.84 334.64c227.92,1.46 455.96,-0.59 683.91,1.04 0,2.83 0,5.62 0.05,8.46 -22.34,-12.79 -48.67,-7.59 -73.09,-8.17 -155.58,0.21 -311.12,0 -466.7,0.08 -26.62,0.34 -53.87,-2.58 -79.87,4.79 -17,4.8 -34.8,4.76 -52.25,6.34 0.04,20.96 0.04,41.91 0.2,62.91 -4,0.5 -8.04,1 -12.04,1.55 -0.33,-25.67 0,-51.34 -0.21,-77z"/>
   <g>
    <path class="fil1" d="M318.42 0.77c28.17,-1.01 56.38,-1.09 84.55,0.16 -0.05,9.21 -0.05,18.42 -0.05,27.63 -0.29,50.16 0.42,100.37 -0.33,150.54 -28.04,-0.29 -56.08,-0.29 -84.12,-0.17 -0.05,-43.71 -0.05,-87.42 -0.13,-131.12 0.13,-15.67 0.17,-31.34 0.08,-47.04l0 0zm18.5 18.16c-0.58,34.08 0.84,68.13 0.5,102.25 0.05,13.33 0.5,26.88 4.09,39.83 14.33,-0.7 28.66,-0.7 43,-0.95 0.41,-43.21 -0.17,-86.42 0.25,-129.63 -0.09,-2.87 -0.29,-8.66 -0.38,-11.54 -15.83,0.04 -31.62,0.08 -47.46,0.04z"/>
   </g>
   <g>
    <path class="fil1" d="M250.88 18.6c16.92,0.17 33.84,0.21 50.75,-0.13 0.17,9.71 0.21,19.42 0.25,29.17 -0.04,43.79 0.38,87.62 -0.16,131.42 -17.21,-0.21 -34.38,-0.25 -51.59,-0.21 -0.66,-28.92 -0.16,-57.84 -0.29,-86.75 -0.04,-7.88 -0.04,-15.75 -0.12,-23.58 -99.17,40.95 -172.21,139.66 -178.42,247.33 3.38,0.04 10.09,0.08 13.46,0.08 188.5,-0.54 377,0.37 565.5,-0.46 -7.13,-106.58 -78.5,-206.37 -177.96,-245.91 -1.13,36.41 0.67,72.91 -1.34,109.33 -17.04,-0.04 -34.08,-0.04 -51.12,0.04 -0.83,-50 -0.12,-100 -0.33,-150.04 0,-2.54 -0.09,-7.62 -0.09,-10.21 17,-0.12 34.05,0.17 51.09,-0.08 0.33,9.83 0.83,19.62 1.58,29.46 55.96,20.95 102.62,61.5 140.08,107.33 28.92,43.21 48.83,92.58 55.75,144.25 0.79,5.21 1.5,10.41 2.13,15.66 16.83,-0.04 33.66,0.8 50.54,0.67 0.08,9.83 0.21,19.71 0.21,29.58 -0.17,27.79 0.12,55.59 -0.3,83.38 -230.7,0.16 -461.45,-0.04 -692.2,0.12 -9.12,0 -18.21,-0.16 -27.33,-0.33 -1.54,-37.63 -1,-75.33 -0.08,-112.96 17.16,0.38 34.37,0.34 51.58,0.21 6.79,-117.33 87.16,-226.12 197.33,-267.08 0.37,-10.08 0.71,-20.17 1.08,-30.29l0 0zm17.92 18.58c0.04,14.46 0,28.96 0.04,43.42 -0.04,26.29 0.25,52.62 0.04,78.91 4.59,0.25 9.21,0.46 13.88,0.67 0.33,-26.54 0.66,-53.08 -0.29,-79.58 -0.5,-14.63 -0.21,-29.29 0.41,-43.88 -4.7,0.13 -9.41,0.3 -14.08,0.46l0 0zm169.62 -0.16c0.05,14.54 0.05,29.08 0.17,43.66 -0.04,26.38 0.04,52.79 0.04,79.21 3.42,0.08 10.29,0.33 13.71,0.46 0.33,-26.67 0.67,-53.34 -0.21,-80 -0.46,-14.42 -0.16,-28.88 0.79,-43.29 -3.62,0 -10.87,-0.04 -14.5,-0.04l0 0zm-419.58 297.62c0.21,25.66 -0.12,51.33 0.21,77 4,-0.55 8.04,-1.05 12.04,-1.55 223.71,1.09 447.46,0.09 671.16,0.46 0.38,-22.12 -0.2,-44.29 0.55,-66.41 -0.05,-2.84 -0.05,-5.63 -0.05,-8.46 -227.95,-1.63 -455.99,0.42 -683.91,-1.04z"/>
   </g>
   <path class="fil2" d="M336.8 30.75c12.08,-0.21 35.83,-0.11 47.96,-0.32 -0.42,43.21 0.16,86.42 -0.25,129.63 -14.34,0.25 -28.67,0.25 -43,0.95 -4.97,-11.34 -4.85,-80.77 -4.71,-130.26z"/>
   <path class="fil2" d="M402.59 179.1c0.75,-50.17 0.04,-100.38 0.33,-150.54 4.13,0.08 12.46,0.25 16.59,0.33 0.21,50.04 -0.5,100.04 0.33,150.04 17.04,-0.08 34.08,-0.08 51.12,-0.04 2.01,-36.42 0.21,-72.92 1.34,-109.33 99.46,39.54 170.83,139.33 177.96,245.91 -188.5,0.83 -377,-0.08 -565.5,0.46 16,-94.87 77.54,-182.29 165.08,-223.83 0.13,28.91 -0.37,57.83 0.29,86.75 17.21,-0.04 34.38,0 51.59,0.21 0.54,-43.8 0.12,-87.63 0.16,-131.42 5.46,0.12 10.96,0.17 16.46,0.17 0.08,43.7 0.08,87.41 0.13,131.12 28.04,-0.12 56.08,-0.12 84.12,0.17z"/>
   <path class="fil2" d="M268.84 80.6c4.54,0 9.04,0 13.63,0 0.95,26.5 0.62,53.04 0.29,79.58 -4.67,-0.21 -9.29,-0.42 -13.88,-0.67 0.21,-26.29 -0.08,-52.62 -0.04,-78.91z"/>
   <path class="fil2" d="M438.59 80.68c3.38,-0.08 10.17,-0.25 13.54,-0.33 0.88,26.66 0.54,53.33 0.21,80 -3.42,-0.13 -10.29,-0.38 -13.71,-0.46 0,-26.42 -0.08,-52.83 -0.04,-79.21z"/>
   <path class="fil2" d="M612.17 155.39c28.29,21.5 44.88,53.67 60.71,84.58 11.25,22.96 17.92,48.17 19.25,73.71 -6.13,0.42 -12.21,0.87 -18.25,1.33 -2.17,-5.08 -4.5,-10.08 -5.96,-15.37 -6.92,-51.67 -26.83,-101.04 -55.75,-144.25z"/>
   <path class="fil2" d="M702.75 335.68c-0.75,22.12 -0.12,52.75 -0.5,74.87 -223.7,-0.37 -447.45,0.63 -671.16,-0.46l-0.2 -75.38 671.86 0.97z"/>
   <path class="fil2" d="M720.8 345.55c10.41,-0.25 20.83,0.59 31.2,1.8 -0.79,36.33 -0.29,72.66 -0.25,109.04 -32.29,3.2 -64.79,-0.13 -97.04,3.29 -180.58,0.25 -361.16,0.21 -541.74,0.04 -27.17,-3.54 -54.54,2.83 -81.54,-2.75 -0.92,-9.33 -2.21,-18.63 -3.13,-27.92 230.75,-0.16 461.5,0.04 692.2,-0.12 0.42,-27.79 0.13,-55.59 0.3,-83.38z"/>
  </g>
 </g>
</svg>
