<?xml version="1.0" encoding="UTF-8"?>
<!DOCTYPE svg PUBLIC "-//W3C//DTD SVG 1.1//EN" "http://www.w3.org/Graphics/SVG/1.1/DTD/svg11.dtd">
<!-- Creator: CorelDRAW 2017 -->
<svg xmlns="http://www.w3.org/2000/svg" xml:space="preserve" version="1.1" style="shape-rendering:geometricPrecision; text-rendering:geometricPrecision; image-rendering:optimizeQuality; fill-rule:evenodd; clip-rule:evenodd"
viewBox="0 0 1711 1599.32"
 xmlns:xlink="http://www.w3.org/1999/xlink">
 <defs>
  <style type="text/css">
   <![CDATA[
    .str1 {stroke:#76529A;stroke-width:20.66;stroke-miterlimit:22.9256}
    .str2 {stroke:black;stroke-width:20.66;stroke-miterlimit:22.9256}
    .str0 {stroke:#76529A;stroke-width:20.66;stroke-miterlimit:22.9256}
    .fil8 {fill:none}
    .fil0 {fill:#2563FB}
    .fil3 {fill:#405CDE}
    .fil6 {fill:#4C5ACF}
    .fil4 {fill:#75529C}
    .fil5 {fill:#904E79}
    .fil7 {fill:#CE422E}
    .fil1 {fill:#E03F19}
    .fil2 {fill:url(#id0)}
   ]]>
  </style>
  <linearGradient id="id0" gradientUnits="userSpaceOnUse" x1="328.4" y1="1309" x2="1425.33" y2="211.62">
   <stop offset="0" style="stop-opacity:1; stop-color:#2661FD"/>
   <stop offset="1" style="stop-opacity:1; stop-color:#E03F19"/>
  </linearGradient>
 </defs>
 <g id="Layer_x0020_1">
  <g id="_2485317540720">
   <polygon class="fil0" points="0,1557.51 0,1376.87 121.55,1376.87 121.55,1405.52 31.48,1405.52 31.48,1557.54 0,1557.54 "/>
   <path class="fil0" d="M149.67 1557.51l0 -136.26 30.45 0 0 91.36c28.56,-40.6 50.07,-71.06 64.51,-91.36l29.41 0 0 136.26 -30.19 0 0 -90.85 -64.77 90.85 -29.41 0z"/>
   <path class="fil0" d="M297.55 1590.3l0 -59.63 14.72 0c10.15,-20.29 15.22,-51.17 15.22,-92.64l0 -16.78 105.55 0 0 109.42 19.35 0 -4.13 59.63 -26.06 0 0 -32.79 -95.49 0 -3.1 32.79 -26.06 0zm46.73 -59.63l57.55 0 0 -82.58 -44.9 0 0 18.07c-0.03,25.3 -4.23,46.79 -12.65,64.51z"/>
   <path class="fil0" d="M478.47 1598.82l0 -177.55 31.23 0 0 22.71c12.03,-17.04 27.43,-25.55 46.19,-25.55 17.2,0 32.1,6.4 44.66,19.21 12.56,12.81 18.85,30.15 18.85,52.01 0,21.51 -6.29,38.66 -18.85,51.47 -12.56,12.81 -27.44,19.22 -44.66,19.22 -18.76,0 -34.16,-7.99 -46.19,-23.99l0 62.45 -31.23 0 0 0.02zm70.19 -65.55c11,0 20.25,-4.04 27.74,-12.12 7.48,-8.09 11.22,-18.76 11.22,-32.01 0,-12.9 -3.79,-23.4 -11.36,-31.48 -7.58,-8.08 -16.79,-12.12 -27.62,-12.12 -10.84,0 -20.18,4.13 -28.01,12.38 -7.83,8.26 -11.74,18.85 -11.74,31.75 0,12.74 3.91,23.19 11.74,31.36 7.85,8.15 17.19,12.24 28.03,12.24z"/>
   <path class="fil0" d="M716.15 1560.61c-20.64,0 -37.86,-6.88 -51.61,-20.64 -13.78,-13.75 -20.64,-30.53 -20.64,-50.32 0,-19.79 6.95,-36.6 20.89,-50.44 13.93,-13.85 31.22,-20.78 51.86,-20.78 20.64,0 37.89,6.88 51.75,20.64 13.85,13.77 20.78,30.63 20.78,50.58 0,19.61 -6.98,36.34 -20.89,50.19 -13.94,13.86 -31.32,20.77 -52.14,20.77zm0.53 -27.09c12.39,0 22.36,-4.2 29.94,-12.65 7.57,-8.43 11.36,-18.85 11.36,-31.22 0,-12.22 -3.95,-22.57 -11.87,-31.09 -7.92,-8.52 -17.88,-12.77 -29.94,-12.77 -12.21,0 -22.11,4.23 -29.69,12.65 -7.57,8.43 -11.36,18.85 -11.36,31.23 0,12.05 3.95,22.36 11.87,30.97 7.9,8.59 17.82,12.88 29.69,12.88z"/>
   <polygon class="fil1" points="824.54,1557.51 824.54,1376.87 971.89,1376.87 971.89,1557.51 940.14,1557.51 940.14,1405.52 856.27,1405.52 856.27,1557.54 824.54,1557.54 "/>
   <path class="fil1" d="M1002.2 1598.82l0 -177.55 31.22 0 0 22.71c12.03,-17.04 27.44,-25.55 46.2,-25.55 17.19,0 32.07,6.4 44.65,19.21 12.56,12.81 18.85,30.15 18.85,52.01 0,21.51 -6.29,38.66 -18.85,51.47 -12.56,12.81 -27.43,19.22 -44.65,19.22 -18.76,0 -34.17,-7.99 -46.2,-23.99l0 62.45 -31.22 0 0 0.02zm70.19 -65.55c10.99,0 20.25,-4.04 27.73,-12.12 7.49,-8.09 11.23,-18.76 11.23,-32.01 0,-12.9 -3.79,-23.4 -11.37,-31.48 -7.57,-8.08 -16.78,-12.12 -27.62,-12.12 -10.84,0 -20.18,4.13 -28.01,12.38 -7.83,8.26 -11.73,18.85 -11.73,31.75 0,12.74 3.9,23.19 11.73,31.36 7.85,8.15 17.2,12.24 28.04,12.24z"/>
   <path class="fil1" d="M1448.94 1599.32l0 -51.1c-8.26,7.92 -18.66,11.87 -31.22,11.87 -16.51,0 -29.85,-6.25 -40,-18.72 -10.15,-12.46 -15.22,-29.64 -15.22,-51.47 0,-21.67 5.12,-38.8 15.36,-51.36 10.24,-12.56 23.6,-18.85 40.13,-18.85 11.87,0 22.2,4.57 30.97,13.68l0 -55.99 31.23 -0.01 0 56c8.77,-9.11 19.1,-13.68 30.97,-13.68 16.51,0 29.89,6.31 40.13,18.96 10.24,12.65 15.36,29.8 15.36,51.48 0,21.85 -5.07,38.96 -15.22,51.36 -10.15,12.39 -23.49,18.57 -39.99,18.57 -12.56,0 -22.96,-3.95 -31.23,-11.87l0 51.11 -31.27 0 0 0.02zm-21.92 -65.27c7.73,0 15.06,-3.01 21.92,-9.02l0 -69.16c-6.89,-6.36 -14.19,-9.55 -21.92,-9.55 -10.68,0 -18.85,3.95 -24.53,11.87 -5.67,7.92 -8.51,18.67 -8.51,32.26 0,13.77 2.8,24.47 8.38,32.12 5.6,7.65 13.82,11.48 24.66,11.48zm75.35 0c10.83,0 19.01,-3.83 24.52,-11.48 5.51,-7.65 8.26,-18.46 8.26,-32.4 0,-13.4 -2.8,-24.08 -8.38,-32 -5.6,-7.92 -13.73,-11.87 -24.38,-11.87 -7.23,0 -14.62,3.19 -22.2,9.55l0 69.15c6.86,6.04 14.26,9.05 22.18,9.05z"/>
   <path class="fil1" d="M1586.63 1557.51l0 -136.26 30.44 0 0 91.36c28.56,-40.6 50.08,-71.06 64.52,-91.36l29.41 0 0 136.26 -30.19 0 0 -90.85 -64.77 90.85 -29.41 0z"/>
   <path class="fil2" d="M1432.32 1257.37c34.37,-52.92 146,-183.2 176.37,-257.19 30.35,-74 33.18,-220.18 18.16,-328.55 -11.34,-81.83 -37.19,-159.41 -75.81,-232.49 -74.75,-141.47 -183.38,-249.11 -326,-321.59 -113.97,-57.92 -235.31,-83.75 -363.12,-79.21 -63.83,2.25 -126.3,12.38 -187.4,30.88 -127.68,38.67 -237.17,106.83 -328.75,203.7 -53.64,56.73 -97.17,120.49 -130.57,191.07 -51.13,108 -74.78,221.78 -71.57,341.19 1.36,50.56 7.88,100.45 19.38,149.7 15.34,65.52 39.58,127.63 71.4,186.86 10.47,19.5 21.03,38.87 36,55.43 18.35,20.27 40.92,32.97 67.76,38.11 10.44,2 12.79,0.78 14.28,-9.64 1.31,-9.09 1.65,-18.37 2.04,-27.58 0.99,-22.04 3.74,-43.57 14.9,-63.23 19.47,-34.32 48.79,-55.08 86.93,-64.05 1.92,-0.46 4.86,-2.64 4.91,-4.11 0.41,-10.89 0.23,-21.77 0.23,-33.32 -2.71,0 -4.8,0 -6.89,0 -14.16,0 -28.35,0.19 -42.52,-0.04 -33.91,-0.53 -55.24,-19.22 -56.36,-53.09 -1.43,-42.88 -1.27,-85.89 0.04,-128.77 0.9,-29.32 23.54,-49.18 53.01,-49.8 10.08,-0.21 20.19,-0.23 30.29,-0.23 65.71,-0.03 131.42,0 197.15,0 2.52,0 5.03,0 7.58,0 7.6,-30.03 14.78,-59.4 22.5,-88.63 5.14,-19.47 10.03,-39.07 16.87,-57.97 6.55,-18.04 20.46,-29.32 40,-30.9 8.72,-0.71 12.53,-4.64 15.15,-12.01 8.01,-22.61 16.35,-45.14 24.43,-67.73 18.39,-51.36 53.03,-85.98 103.96,-106.21 100.97,-40.13 201.37,-81.73 302.05,-122.62 8.47,-3.45 14.03,-8.96 17.63,-17.48 14.24,-33.61 46.93,-51.7 85.71,-47.94 33.15,3.22 59.65,28.02 66.6,63.17 7.24,36.59 13.85,73.31 20.76,109.97 14.86,78.82 29.71,157.64 44.56,236.46 6.11,32.46 12.31,64.91 18.3,97.39 3.52,19.08 -3.28,27.07 -22.68,27.05 -7.3,0 -14.58,-0.32 -21.88,-0.62 -12.74,-0.53 -22.27,4.8 -29.18,15.45 -5.38,8.27 -10.79,16.53 -16.69,24.43 -31.07,41.65 -62.27,83.16 -93.4,124.74 -3.29,4.38 -6.34,8.95 -9.62,13.59 20.11,0 39.21,0.6 58.27,-0.21 13.87,-0.59 28.1,-1.4 41.39,-4.98 33.94,-9.16 58.92,-44.13 59.03,-80.56 0.05,-11.78 -1.49,-23.63 -0.85,-35.36 1.84,-34.16 27.23,-59.88 58.66,-60.29 34.05,-0.44 65.07,22.91 75.13,56.8 7.23,24.32 5.39,59.86 1.31,86.9 -5.28,19.59 -12.01,51.02 -25.65,81.3 -13.64,30.28 -26.45,54.83 -41.46,78.29 -15.02,23.47 -83.07,108.3 -96.96,131.47 -16.88,28.12 -27.99,41.49 -27.99,41.49l-13.64 -10.64 21.1 -37.33c21.17,-33.45 94.09,-140.1 106.83,-161.24 12.74,-21.15 22.48,-43.16 32.6,-72.48 10.29,-29.83 14.12,-49.11 15.13,-73.04 1.04,-23.94 -5.39,-44.1 -7.64,-53.49 -3.88,-16.21 -15.38,-25.88 -31.52,-29.67 -8.57,-1.99 -16.67,0.6 -21.84,6.62 -2.73,3.16 -4.64,7.3 -5.33,12.21 -1.74,12.24 -1.17,24.8 -1.53,37.19 -1.77,59.58 -42.82,109.27 -100.75,120.54 -13.34,2.59 -27.32,2.59 -41,2.71 -28.54,0.23 -57.1,-0.28 -85.67,-0.53 -1.9,-0.02 -3.94,-0.02 -5.71,-0.64 -14.15,-5.05 -23.38,-14.33 -10.79,-31 46.03,-60.98 91.67,-122.25 137.52,-183.39 16.28,-21.72 14.33,-18.95 6.11,-41.68 -45.99,-127.4 -92.02,-254.78 -138.03,-382.18 -1.08,-2.98 -2.34,-5.92 -3.77,-9.48 -14.67,5.92 -28.93,11.62 -43.14,17.4 -88.9,36.3 -177.82,72.6 -266.72,108.92 -32.32,13.2 -56.04,35.45 -69.31,67.89 -10.79,26.34 -20.69,53.02 -31.34,80.54 3.37,0 5.44,0 7.48,0 40.8,0 81.6,0 122.4,0 9.53,0 11.76,-2.02 14.76,-10.93 5.24,-15.63 10.08,-31.47 16.58,-46.58 8.93,-20.85 23.97,-37.08 43.07,-49.18 53.84,-34.07 107.77,-67.98 161.84,-101.66 4.73,-2.94 10.61,-4.55 16.17,-5.49 6.91,-1.17 12.81,1.84 16.07,8.22 3.35,6.59 2.06,13.06 -2.53,18.62 -2.13,2.59 -4.96,4.77 -7.83,6.59 -50.74,32.14 -101.23,64.72 -152.45,96.08 -25.23,15.45 -43.46,35.13 -50.23,64.45 -1.5,6.43 -4.07,12.61 -6.34,19.52 25.71,6.24 36.57,26.17 45.3,48.07 22.38,56.16 44.93,112.23 66.95,168.52 3.05,7.81 4.66,16.63 4.82,25.01 0.64,36.04 0.57,72.11 0.64,108.16 0.07,33.41 -16.05,53.24 -48.74,60.57 -1.7,0.39 -4.23,2.59 -4.29,4.01 -0.37,9.83 -0.21,19.68 -0.21,29.78 12.08,1.08 23.6,1.68 34.99,3.19 52.37,6.96 94.41,46.91 104.51,99 12.37,63.71 -26.54,126.85 -89.15,143.66 -11.28,3.03 -23.28,4.68 -34.95,4.71 -183.37,0.27 -366.77,0.34 -550.15,0.09 -34.02,-0.05 -63.71,-12.19 -88.23,-36.16 -6.73,-6.59 -8.15,-16.23 -3.61,-22.78 5.01,-7.21 14.97,-9.6 23.56,-5.3 3.03,1.51 5.9,3.53 8.45,5.78 16.81,14.79 36.39,22.43 58.75,22.46 129.26,0.14 258.55,0.23 387.81,0.23 55.61,0 111.24,0.71 166.82,-0.69 49.82,-1.26 84.7,-36.99 86.81,-84.4 2.09,-46.95 -32.26,-87.89 -78.57,-91.49 -24.72,-1.93 -49.73,-0.39 -74.61,-0.32 -34.35,0.09 -68.68,0.41 -103.02,0.39 -82.86,-0.07 -165.75,-0.19 -248.61,-0.44 -43.37,-0.11 -86.71,-0.57 -130.08,-0.83 -25.37,-0.13 -48.45,6.27 -67.07,24.5 -17.1,16.76 -25.11,37.22 -25.57,61.19 -0.28,14.76 -1.27,29.66 -3.79,44.17 -5.26,30.19 -26.5,43.88 -56.73,38.27 -46.36,-8.56 -81.92,-33.52 -107.27,-72.48 -31.13,-47.8 -54.9,-99.41 -74.07,-153.07 -25.87,-72.37 -40.7,-147.01 -44.24,-223.83 -0.16,-3.4 -0.69,-6.79 -1.03,-10.19 0,-19.77 0,-39.51 0,-59.28 0.37,-3.17 0.89,-6.36 1.03,-9.53 3.19,-70.28 15.27,-139.07 38.09,-205.56 73.84,-214.92 213.82,-371.18 419.42,-468 79.46,-37.42 163.52,-59.05 251.02,-67.02 16,-1.44 32.05,-2.45 48.07,-3.67 17.18,0 34.37,0 51.55,0 1.7,0.23 3.37,0.57 5.07,0.64 42.75,1.61 85.16,6.45 127.01,15.25 161.18,33.86 299.37,109.88 412.01,229.96 139.57,148.77 210.28,326.25 214.07,530.22 0.87,47.3 -3.05,94.34 -11.18,140.97 -22.06,126.6 -134.08,249.43 -212.07,351.55m-738.86 -271.1c0,-0.07 0,-0.14 0,-0.21 99.42,0 198.83,0 298.22,0 16.14,0 21.49,-4.59 22.16,-20.64 0.57,-13.68 -1.06,-27.5 0.14,-41.12 3.97,-44.91 -2.16,-87.95 -19.79,-129.58 -17.73,-41.81 -34.7,-83.96 -51.78,-126.02 -6.95,-17.13 -12.44,-21.01 -30.97,-20.87 -38.43,0.27 -76.84,0.52 -115.28,0.64 -26.61,0.09 -53.24,-0.23 -79.85,0 -13.96,0.14 -17.61,3.08 -21.26,16.67 -5.01,18.62 -9.53,37.38 -14.21,56.09 -7.3,29.11 -14.49,58.25 -21.91,87.31 -3.56,13.91 -8.49,17.54 -22.75,17.75 -1.72,0.02 -3.44,0 -5.14,0 -78.16,0 -156.31,-0.02 -234.46,0.02 -16.97,0 -22.69,4.53 -22.92,21.31 -0.5,39.69 -0.39,79.41 0.12,119.11 0.18,14.26 6.26,19.22 20.84,19.33 19.54,0.16 39.08,0.23 58.62,0.23 80.06,-0.02 160.14,-0.02 240.22,-0.02zm672.44 -250.51c-0.56,-3.67 -0.92,-6.82 -1.5,-9.92 -13.08,-69.75 -26.17,-139.48 -39.28,-209.23 -13.04,-69.31 -26.04,-138.62 -39.26,-207.92 -4.36,-22.84 -23.12,-36.5 -46.24,-34.41 -31.5,2.85 -48.65,31.02 -37.54,61.71 34.9,96.29 69.82,192.56 104.74,288.86 12.13,33.45 24.2,66.9 36.32,100.33 4.25,11.68 5.84,12.62 17.93,11.18 1.24,-0.09 2.51,-0.28 4.83,-0.6zm-406.34 287.45c-159.75,0 -318.93,0 -478.24,0 0,11.53 0,22.62 0,33.87 159.57,0 318.77,0 478.24,0 0,-11.37 0,-22.27 0,-33.87z"/>
   <path class="fil3" d="M622.11 1193.17c0.16,-29.94 24.22,-53.33 54.55,-53.08 28.7,0.23 52.6,24.48 52.53,53.31 -0.07,29.67 -24.61,53.89 -54.35,53.63 -29.02,-0.25 -52.89,-24.65 -52.73,-53.86zm36.07 0.3c0.04,9.76 7.8,17.63 17.42,17.63 9.37,0 17.52,-8.19 17.57,-17.68 0.02,-9.52 -8.06,-17.56 -17.61,-17.49 -9.83,0.07 -17.43,7.71 -17.38,17.54z"/>
   <path class="fil3" d="M835.77 1140.09c29.73,0 53.51,23.76 53.49,53.45 -0.02,29.48 -24.15,53.54 -53.65,53.5 -28.96,-0.05 -53.2,-24.29 -53.29,-53.34 -0.09,-29.55 23.9,-53.61 53.45,-53.61zm0.34 36c-9.9,-0.14 -17.77,7.46 -17.84,17.22 -0.04,9.53 8.15,17.86 17.54,17.82 9.39,-0.05 17.15,-7.72 17.36,-17.18 0.23,-10.05 -7.09,-17.72 -17.06,-17.86z"/>
   <path class="fil4" d="M996.07 1140.09c29.43,-0.02 54.16,24.59 53.77,53.52 -0.39,29.18 -24.52,53.33 -53.4,53.42 -29.46,0.12 -53.8,-23.99 -53.91,-53.38 -0.12,-29.54 23.87,-53.54 53.54,-53.56zm-0.05 35.93c-9.82,0.09 -17.56,7.9 -17.42,17.54 0.16,9.74 8.12,17.68 17.58,17.57 9.37,-0.12 17.66,-8.47 17.59,-17.75 -0.05,-9.58 -8.13,-17.45 -17.75,-17.36z"/>
   <path class="fil3" d="M515.12 1140.09c29.75,-0.07 53.65,23.67 53.7,53.29 0.02,29.46 -24.16,53.68 -53.57,53.63 -29.36,-0.02 -53.4,-24.29 -53.35,-53.84 0.04,-29.27 23.85,-53.03 53.22,-53.08zm17.63 53.17c-0.07,-9.82 -7.83,-17.45 -17.61,-17.28 -9.67,0.16 -17.7,8.24 -17.54,17.63 0.18,9.39 8.49,17.54 17.88,17.49 9.53,-0.04 17.36,-8.12 17.27,-17.84z"/>
   <path class="fil5" d="M817.95 837.49c-24.93,0 -48.95,0 -72.99,0 -24.06,0 -30.1,-7.88 -23.9,-31.16 8.34,-31.27 16.65,-62.54 25,-93.79 3.59,-13.38 9.49,-17.86 23.56,-17.86 45.71,-0.05 91.45,-0.07 137.16,-0.12 11.52,0 17.82,4.11 22.34,14.86 21.35,50.76 42.77,101.48 63.85,152.33 2.16,5.19 2.98,11.23 3.08,16.9 0.36,20.39 0.2,40.78 0.11,61.17 -0.07,16.11 -6.13,22.31 -22.16,22.38 -33.06,0.12 -66.1,0.05 -99.16,0.02 -8.56,0 -15.29,-3.42 -20.06,-10.67 -9.07,-13.8 -18.07,-27.65 -27.42,-41.26 -6.82,-9.94 -9.71,-20.78 -9.5,-32.76 0.3,-13.04 0.09,-26.08 0.09,-40.04zm141.34 88.67c0,-15.43 0.46,-30.01 -0.14,-44.55 -0.55,-13.79 -7.35,-25.73 -12.63,-38.18 -13.22,-31.15 -25.96,-62.49 -38.41,-93.95 -6.56,-16.6 -11.94,-20.77 -29.82,-19.97 -6.2,0.27 -12.4,1.12 -18.62,1.15 -4.55,0.02 -5.77,1.74 -5.74,6.1 0.14,47.44 0.02,94.89 0.21,142.33 0.02,3.46 0.98,7.39 2.8,10.28 6.56,10.54 13.45,20.92 20.77,30.98 1.93,2.66 5.77,5.51 8.77,5.55 24.2,0.44 48.43,0.26 72.81,0.26zm-142.6 -125.29c0,-23.19 0,-46.06 0,-69.66 -11.92,0 -23.7,-0.16 -35.45,0.2 -1.43,0.05 -3.47,2.74 -4,4.55 -2.98,10.29 -5.58,20.71 -8.33,31.06 -2.96,11.14 -5.97,22.25 -9.11,33.87 19.37,-0.02 37.92,-0.02 56.89,-0.02z"/>
   <path class="fil6" d="M497.46 917.45c0,-9 -0.41,-18 0.09,-26.97 0.76,-13.11 10.84,-20.3 23.01,-17.02 7.14,1.93 12.26,7.65 12.44,16.1 0.44,18.62 0.6,37.26 -0.02,55.86 -0.37,11.32 -7.55,17.1 -18.53,16.8 -10.26,-0.27 -16.51,-6.56 -16.94,-17.81 -0.35,-8.96 -0.05,-17.96 -0.05,-26.96z"/>
   <path class="fil6" d="M461.87 917.98c0,8.77 0.16,17.57 -0.04,26.34 -0.28,11.45 -6.59,17.81 -17.41,17.93 -11.11,0.14 -17.93,-6.32 -18.09,-17.93 -0.25,-17.77 -0.25,-35.57 0.05,-53.36 0.18,-10.95 7.44,-18.25 17.42,-18.41 10.45,-0.16 17.73,7.11 18.03,18.46 0.23,9 0.04,18 0.04,26.97z"/>
   <path class="fil6" d="M604.29 917.39c0,8.99 0.3,18.02 -0.07,27.02 -0.46,10.65 -7.57,17.36 -17.63,17.38 -10.24,0.02 -17.33,-6.36 -17.61,-17.24 -0.44,-18 -0.51,-36.03 0,-54.03 0.32,-11.41 7.67,-18.14 17.79,-17.95 10.13,0.18 17.06,7.23 17.5,18.41 0.34,8.79 0.07,17.59 0.07,26.38 -0.03,0.03 -0.03,0.03 -0.05,0.03z"/>
   <path class="fil7" d="M1280.95 338.67c0.02,9.9 -8.04,18 -17.89,17.96 -9.57,-0.05 -17.52,-7.92 -17.7,-17.52 -0.18,-9.97 7.69,-18.16 17.59,-18.3 9.85,-0.14 17.98,7.94 18,17.86z"/>
   <path class="fil8 str0" d="M1251.61 1553.45c-24.82,0 -45.53,-8.26 -62.09,-24.82 -16.55,-16.55 -24.82,-36.73 -24.82,-60.52 0,-23.78 8.38,-44.01 25.15,-60.68 16.76,-16.65 37.56,-24.98 62.38,-24.98 24.84,0 45.57,8.29 62.24,24.82 16.64,16.55 24.98,36.82 24.98,60.84 0,23.58 -8.38,43.71 -25.14,60.36 -16.76,16.65 -37.66,24.98 -62.7,24.98zm0.62 -32.6c14.9,0 26.9,-5.08 36,-15.2 9.11,-10.13 13.66,-22.66 13.66,-37.56 0,-14.7 -4.76,-27.16 -14.28,-37.4 -9.53,-10.24 -21.52,-15.36 -36,-15.36 -14.7,0 -26.59,5.07 -35.71,15.2 -9.11,10.14 -13.66,22.66 -13.66,37.56 0,14.49 4.76,26.91 14.28,37.24 9.53,10.35 21.43,15.52 35.71,15.52z"/>
   <polyline class="fil8 str0" points="1232.53,1381.48 1263.04,1332.05 1365.32,1395.19 1337.86,1439.66 "/>
   <rect class="fil8 str1" transform="matrix(0.8516 0.5241 -0.5241 0.8516 1347.14 1270.06)" width="45.71" height="96.87"/>
   <polyline class="fil8 str2" points="1441.07,1262.76 1411.95,1310.08 1321.24,1254.24 1350.35,1206.93 "/>
  </g>
 </g>
</svg>
